<?xml version="1.0" encoding="iso-8859-1"?>
<!-- Generator: Adobe Illustrator 16.0.0, SVG Export Plug-In . SVG Version: 6.00 Build 0)  -->
<!DOCTYPE svg PUBLIC "-//W3C//DTD SVG 1.1//EN" "http://www.w3.org/Graphics/SVG/1.1/DTD/svg11.dtd">
<svg xmlns="http://www.w3.org/2000/svg" xmlns:xlink="http://www.w3.org/1999/xlink" version="1.1" id="Capa_1" x="0px" y="0px" width="512px" height="512px" viewBox="0 0 897.764 897.764" style="enable-background:new 0 0 897.764 897.764;" xml:space="preserve">
<g>
	<g>
		<path d="M563.417,193.517l0.156-72.204L312.207,0l-0.238,109.847L202.606,267.525v522.458l221.367,107.78l271.185-106.072V258.412    L563.417,193.517z M607.337,259.097l-86.266-11.485l16.012-23.089L607.337,259.097z M626.046,281.464L450.82,348.915    l57.633-83.107L626.046,281.464z M351.475,62.704l172.641,83.319l-0.108,50.239l-172.642-83.319L351.475,62.704z M414.63,848.604    l-172.62-83.309v-472.81l172.62,83.309V848.604z M421.183,357.08l-174.359-84.148l97.975-141.28l174.359,84.147L421.183,357.08z     M655.753,764.715l-221.421,85.233V376.373l221.421-85.233V764.715z" fill="#FFFFFF"/>
		<path d="M551.353,668.089c62.935-24.273,44.425-129.969-6.91-185.015C500.017,566.643,488.417,692.363,551.353,668.089z" fill="#FFFFFF"/>
	</g>
</g>
<g>
</g>
<g>
</g>
<g>
</g>
<g>
</g>
<g>
</g>
<g>
</g>
<g>
</g>
<g>
</g>
<g>
</g>
<g>
</g>
<g>
</g>
<g>
</g>
<g>
</g>
<g>
</g>
<g>
</g>
</svg>
